<svg xmlns="http://www.w3.org/2000/svg" width="244" height="244" viewBox="0 0 244 244" fill="none">
  <g transform="translate(3.75 0)">
    <path d="m137.8 113.3 7.59-7.31-15.29-15.99 12.63-13.33-6.39-7.1 7.02-6.91-61.15-61.34-6.76 6.76-7.48-6.47-65.38 65.09 6.24 6.24-6.47 7.17 61.74 60.99 6.76-6.76 7.48 6.76 16.36-15.82 15.14 15.4 7.17-6.9 39.89 39.11-24.65 24.06 18.05 17.49 8.29-8.71-9.69-8.42 10.39-9.39 9.55 9.39 5.9-6.61 8.85 8.85-5.9 6.61 9.25 9.25-10.25 9.83-8.7-10.11-8.15 8.7 17.64 18.76 25.94-24.34 7.73 7.87 21.75-20.32-95.1-92.5zm-66.11 0-42.53-42.23 43.81-42.4 41.88 41.33-43.16 43.3z" fill="#FFFFFF"/>
  </g>
</svg>
